<svg xmlns="http://www.w3.org/2000/svg" viewBox="0 0 64 64" id="keyboard-arrow"><path d="M63.51 32.53H43.87a.49.49 0 0 0-.49.49v19.63c0 .28.22.5.49.5h19.64c.27 0 .49-.22.49-.5V33.03a.5.5 0 0 0-.49-.5zM61.25 50.4H46.13V35.28h15.12V50.4zM41.82 32.53H22.18a.49.49 0 0 0-.49.49v19.63c0 .28.22.5.49.5h19.64c.27 0 .49-.22.49-.5V33.03a.5.5 0 0 0-.49-.5zM39.56 50.4H24.44V35.28h15.12V50.4zm2.26-39.55H22.18a.49.49 0 0 0-.49.49v19.63c0 .28.22.5.49.5h19.64c.27 0 .49-.22.49-.5V11.34c0-.28-.22-.49-.49-.49zm-2.26 17.87H24.44V13.59h15.12v15.13zm-19.43 3.81H.49a.5.5 0 0 0-.49.5v19.63c0 .28.22.5.49.5h19.64c.27 0 .49-.22.49-.5V33.03a.5.5 0 0 0-.49-.5zM17.88 50.4H2.75V35.28h15.13V50.4z"></path><path d="M49.09 44.47h4.57v.87a.662.662 0 0 0 .66.67c.13 0 .26-.04.37-.11l3.79-2.51c.19-.12.3-.33.3-.55 0-.23-.11-.43-.3-.56l-3.79-2.51a.687.687 0 0 0-.68-.03c-.22.12-.35.35-.35.59v.88h-4.57a.49.49 0 0 0-.49.49v2.27c0 .29.22.5.49.5zm-17.64 3.16c.12.18.33.29.55.29.22 0 .43-.11.56-.29l2.5-3.79a.66.66 0 0 0 .03-.69.666.666 0 0 0-.58-.35h-.88v-4.56a.49.49 0 0 0-.49-.49h-2.28a.49.49 0 0 0-.49.49v4.56h-.88c-.24 0-.46.14-.58.35a.66.66 0 0 0 .03.69l2.51 3.79zM29.5 21.18h.87v4.56c0 .28.22.5.49.5h2.28c.27 0 .49-.22.49-.5v-4.56h.88c.24 0 .47-.13.58-.35.12-.22.11-.48-.03-.68l-2.5-3.79v-.01c-.25-.37-.86-.37-1.11.01l-2.51 3.79c-.14.2-.15.46-.03.68.12.23.34.35.59.35zM9.31 45.9c.11.07.24.11.37.11a.662.662 0 0 0 .66-.67v-.87h4.57c.27 0 .49-.22.49-.5V41.7a.49.49 0 0 0-.49-.49h-4.57v-.88c0-.25-.13-.47-.34-.59a.707.707 0 0 0-.69.03l-3.79 2.51c-.19.13-.3.33-.3.56 0 .22.11.43.3.55l3.79 2.51z"></path></svg>